<svg xmlns="http://www.w3.org/2000/svg" width="83.382" height="83.382" viewBox="0 0 83.382 83.382">
  <g id="Icon_ionic-ios-close-circle-outline" data-name="Icon ionic-ios-close-circle-outline" transform="translate(-3.375 -3.375)">
    <path id="Path_3071" data-name="Path 3071" d="M43.532,39.011,32.969,28.448,43.532,17.885A3.2,3.2,0,0,0,39,13.355L28.439,23.918,17.876,13.355a3.064,3.064,0,0,0-4.53,0,3.1,3.1,0,0,0,0,4.53L23.909,28.448,13.346,39.011a3.1,3.1,0,0,0,0,4.53,3.182,3.182,0,0,0,4.53,0L28.439,32.978,39,43.541a3.218,3.218,0,0,0,4.53,0A3.182,3.182,0,0,0,43.532,39.011Z" transform="translate(16.627 16.618)" fill="#e24c4b"/>
    <path id="Path_3072" data-name="Path 3072" d="M45.066,8.987A36.085,36.085,0,0,1,70.582,70.582,36.085,36.085,0,0,1,19.55,19.55,35.84,35.84,0,0,1,45.066,8.987m0-5.612A41.691,41.691,0,1,0,86.757,45.066,41.685,41.685,0,0,0,45.066,3.375Z" fill="#e24c4b"/>
  </g>
</svg>
