<svg id="right" xmlns="http://www.w3.org/2000/svg" width="83.382" height="83.382" viewBox="0 0 83.382 83.382">
  <g id="Group_774" data-name="Group 774">
    <g id="Group_773" data-name="Group 773">
      <path id="Path_2441" data-name="Path 2441" d="M71.171,12.211a41.691,41.691,0,0,0-58.96,58.96,41.691,41.691,0,1,0,58.96-58.96ZM41.691,78.5A36.805,36.805,0,1,1,78.5,41.691,36.847,36.847,0,0,1,41.691,78.5Z" fill="#95de64"/>
    </g>
  </g>
  <g id="Group_776" data-name="Group 776" transform="translate(21.057 27.599)">
    <g id="Group_775" data-name="Group 775">
      <path id="Path_2442" data-name="Path 2442" d="M169.852,170.182a2.443,2.443,0,0,0-3.455,0l-21.572,21.572L133.471,180.4a2.443,2.443,0,1,0-3.455,3.455L143.1,196.936a2.443,2.443,0,0,0,3.455,0l23.3-23.3A2.443,2.443,0,0,0,169.852,170.182Z" transform="translate(-129.301 -169.467)" fill="#95de64"/>
    </g>
  </g>
</svg>
